<svg width="48" height="49" viewBox="0 0 48 49" fill="none" xmlns="http://www.w3.org/2000/svg">
<g clip-path="url(#clip0_759_330)">
<path d="M34.5 2H7.5C5.9087 2 4.38258 2.63214 3.25736 3.75736C2.13214 4.88258 1.5 6.4087 1.5 8V44C1.5 44.7956 1.81607 45.5587 2.37868 46.1213C2.94129 46.6839 3.70435 47 4.5 47H7.36" stroke="#A36316" stroke-width="3" stroke-linecap="round" stroke-linejoin="round"/>
<path d="M7.5 11.5H22" stroke="#A36316" stroke-width="3" stroke-linecap="round" stroke-linejoin="round"/>
<path d="M7.5 19.5H17.22" stroke="#A36316" stroke-width="3" stroke-linecap="round" stroke-linejoin="round"/>
<path d="M30 20V6.5C30 5.30653 30.4741 4.16193 31.318 3.31802C32.1619 2.47411 33.3065 2 34.5 2C35.6935 2 36.8381 2.47411 37.682 3.31802C38.5259 4.16193 39 5.30653 39 6.5V11.5H30" stroke="#A36316" stroke-width="3" stroke-linecap="round" stroke-linejoin="round"/>
<path d="M43.4999 39.7202L33.9199 41.6402" stroke="#A36316" stroke-width="3" stroke-linecap="round" stroke-linejoin="round"/>
<path d="M34.8808 30.7802L30.3608 32.6802C30.0072 32.8332 29.6261 32.9121 29.2408 32.9121C28.8555 32.9121 28.4744 32.8332 28.1208 32.6802C27.599 32.4436 27.1547 32.0645 26.839 31.5864C26.5233 31.1083 26.3492 30.5507 26.3367 29.9779C26.3241 29.4052 26.4737 28.8405 26.7681 28.3491C27.0626 27.8576 27.4899 27.4593 28.0008 27.2002L32.5208 24.9402C33.0781 24.6546 33.6946 24.5039 34.3208 24.5002C34.7934 24.4954 35.2623 24.5838 35.7008 24.7602L44.9408 28.5002" stroke="#A36316" stroke-width="3" stroke-linecap="round" stroke-linejoin="round"/>
<path d="M16.4004 41.72H19.5804L25.6804 46.36C25.8233 46.5219 25.9967 46.654 26.1908 46.7487C26.3849 46.8434 26.5957 46.8989 26.8113 46.9119C27.0269 46.9249 27.2429 46.8952 27.4469 46.8245C27.651 46.7538 27.8391 46.6435 28.0004 46.5L36.5204 39.46C36.8604 39.1854 37.0784 38.7877 37.1271 38.3534C37.1758 37.919 37.0512 37.483 36.7804 37.14L32.0004 31.96" stroke="#A36316" stroke-width="3" stroke-linecap="round" stroke-linejoin="round"/>
<path d="M27.4809 27.5202L26.9809 27.1002C26.3526 26.6872 25.6124 26.4777 24.8609 26.5002C24.4035 26.5002 23.9498 26.5814 23.5209 26.7402L16.3809 29.7002" stroke="#A36316" stroke-width="3" stroke-linecap="round" stroke-linejoin="round"/>
<path d="M13.5 43.2202H14.1C14.3995 43.2364 14.6993 43.1933 14.9821 43.0934C15.2649 42.9936 15.5253 42.8389 15.7482 42.6382C15.9712 42.4376 16.1523 42.1949 16.2813 41.9241C16.4103 41.6533 16.4847 41.3597 16.5 41.0602V30.3602C16.4639 29.7587 16.1912 29.196 15.7415 28.7951C15.2918 28.3941 14.7016 28.1874 14.1 28.2202H13.5" stroke="#A36316" stroke-width="3" stroke-linecap="round" stroke-linejoin="round"/>
<path d="M46.4996 43.2202H45.9996C45.7001 43.2364 45.4003 43.1933 45.1175 43.0934C44.8347 42.9936 44.5743 42.8389 44.3514 42.6382C44.1284 42.4376 43.9473 42.1949 43.8183 41.9241C43.6893 41.6533 43.615 41.3597 43.5996 41.0602V30.3602C43.6357 29.7587 43.9084 29.196 44.3581 28.7951C44.8078 28.3941 45.398 28.1874 45.9996 28.2202H46.5996" stroke="#A36316" stroke-width="3" stroke-linecap="round" stroke-linejoin="round"/>
</g>
<defs>
<clipPath id="clip0_759_330">
<rect width="48" height="48" fill="white" transform="translate(0 0.5)"/>
</clipPath>
</defs>
</svg>
