<svg width="48" height="49" viewBox="0 0 48 49" fill="none" xmlns="http://www.w3.org/2000/svg">
<g clip-path="url(#clip0_759_1006)">
<path d="M18.2615 15.5C18.2484 13.5149 17.454 11.6149 16.0503 10.2112C14.6466 8.80749 12.7465 8.0131 10.7615 8C6.26146 8 5.40746 5.484 4.76146 2C-1.23854 9.5 1.19946 23 10.7615 23" stroke="#A36316" stroke-width="3" stroke-linecap="round" stroke-linejoin="round"/>
<path d="M18.587 38.4002L15.921 41.0642C15.3584 41.6266 14.5954 41.9426 13.8 41.9426C13.0045 41.9426 12.2415 41.6266 11.679 41.0642L7.43695 36.8222C6.87454 36.2596 6.55859 35.4967 6.55859 34.7012C6.55859 33.9057 6.87454 33.1428 7.43695 32.5802L9.96095 30.0542M25.383 14.6322L36.183 3.83222C37.3083 2.7069 38.8345 2.07471 40.426 2.07471C42.0174 2.07471 43.5436 2.7069 44.669 3.83222C45.7943 4.95753 46.4265 6.48378 46.4265 8.07521C46.4265 9.66665 45.7943 11.1929 44.669 12.3182L33.377 23.6102M43.891 13.1002C44.6041 13.6336 45.1993 14.3087 45.6391 15.0831C46.0788 15.8576 46.3538 16.7145 46.4465 17.6003C46.5393 18.486 46.448 19.3813 46.1782 20.2301C45.9084 21.0788 45.4661 21.8626 44.879 22.5322L38.401 29.0002M28.889 11.1262L37.375 19.6122M10.763 23.0002L18.263 15.5002L41.539 42.4402C41.9899 42.9701 42.2244 43.6505 42.1957 44.3457C42.167 45.0409 41.8771 45.6997 41.384 46.1906C40.8909 46.6814 40.2307 46.9683 39.5354 46.9938C38.8401 47.0193 38.1607 46.7816 37.633 46.3282L10.763 23.0002Z" stroke="#A36316" stroke-width="3" stroke-linecap="round" stroke-linejoin="round"/>
<path d="M5.314 43.1858L1.5 46.9998M3.192 41.0638L7.436 36.8198L11.676 41.0638L7.436 45.3038L3.192 41.0638Z" stroke="#A36316" stroke-width="3" stroke-linecap="round" stroke-linejoin="round"/>
</g>
<defs>
<clipPath id="clip0_759_1006">
<rect width="48" height="48" fill="white" transform="translate(0 0.5)"/>
</clipPath>
</defs>
</svg>
