<svg width="48" height="49" viewBox="0 0 48 49" fill="none" xmlns="http://www.w3.org/2000/svg">
<path d="M1.5 36.5C1.5 37.6819 1.73279 38.8522 2.18508 39.9442C2.63738 41.0361 3.30031 42.0282 4.13604 42.864C4.97177 43.6997 5.96392 44.3626 7.05585 44.8149C8.14778 45.2672 9.3181 45.5 10.5 45.5C11.6819 45.5 12.8522 45.2672 13.9442 44.8149C15.0361 44.3626 16.0282 43.6997 16.864 42.864C17.6997 42.0282 18.3626 41.0361 18.8149 39.9442C19.2672 38.8522 19.5 37.6819 19.5 36.5C19.5 35.3181 19.2672 34.1478 18.8149 33.0558C18.3626 31.9639 17.6997 30.9718 16.864 30.136C16.0282 29.3003 15.0361 28.6374 13.9442 28.1851C12.8522 27.7328 11.6819 27.5 10.5 27.5C9.3181 27.5 8.14778 27.7328 7.05585 28.1851C5.96392 28.6374 4.97177 29.3003 4.13604 30.136C3.30031 30.9718 2.63738 31.9639 2.18508 33.0558C1.73279 34.1478 1.5 35.3181 1.5 36.5Z" stroke="#A36316" stroke-width="3" stroke-linecap="round" stroke-linejoin="round"/>
<path d="M19.5003 36.4999V8.74986C19.5021 7.4785 19.0426 6.24966 18.2069 5.2915C17.3713 4.33334 16.2164 3.71096 14.9566 3.53993C13.6968 3.36889 12.4177 3.66082 11.3568 4.3615C10.296 5.06219 9.52544 6.12403 9.18827 7.34986L1.82227 34.1099" stroke="#A36316" stroke-width="3" stroke-linecap="round" stroke-linejoin="round"/>
<path d="M28.5 36.5C28.5 37.6819 28.7328 38.8522 29.1851 39.9442C29.6374 41.0361 30.3003 42.0282 31.136 42.864C31.9718 43.6997 32.9639 44.3626 34.0558 44.8149C35.1478 45.2672 36.3181 45.5 37.5 45.5C38.6819 45.5 39.8522 45.2672 40.9442 44.8149C42.0361 44.3626 43.0282 43.6997 43.864 42.864C44.6997 42.0282 45.3626 41.0361 45.8149 39.9442C46.2672 38.8522 46.5 37.6819 46.5 36.5C46.5 35.3181 46.2672 34.1478 45.8149 33.0558C45.3626 31.9639 44.6997 30.9718 43.864 30.136C43.0282 29.3003 42.0361 28.6374 40.9442 28.1851C39.8522 27.7328 38.6819 27.5 37.5 27.5C36.3181 27.5 35.1478 27.7328 34.0558 28.1851C32.9639 28.6374 31.9718 29.3003 31.136 30.136C30.3003 30.9718 29.6374 31.9639 29.1851 33.0558C28.7328 34.1478 28.5 35.3181 28.5 36.5Z" stroke="#A36316" stroke-width="3" stroke-linecap="round" stroke-linejoin="round"/>
<path d="M28.5 36.4999V8.74986C28.4981 7.4785 28.9577 6.24966 29.7933 5.2915C30.629 4.33334 31.7839 3.71096 33.0437 3.53993C34.3035 3.36889 35.5826 3.66082 36.6434 4.3615C37.7043 5.06219 38.4748 6.12403 38.812 7.34986L46.178 34.1039" stroke="#A36316" stroke-width="3" stroke-linecap="round" stroke-linejoin="round"/>
<path d="M19.5 18.5H28.5V24.5H19.5V18.5Z" stroke="#A36316" stroke-width="3" stroke-linecap="round" stroke-linejoin="round"/>
</svg>
